<?xml version="1.0" standalone="no"?>
<!DOCTYPE svg PUBLIC "-//W3C//DTD SVG 20010904//EN"
 "http://www.w3.org/TR/2001/REC-SVG-20010904/DTD/svg10.dtd">
<svg version="1.0" xmlns="http://www.w3.org/2000/svg"
 width="393.000000pt" height="365.000000pt" viewBox="0 0 393.000000 365.000000"
 preserveAspectRatio="xMidYMid meet">

<g transform="translate(0.000000,365.000000) scale(0.100000,-0.100000)"
fill="#000000" stroke="none">
<path d="M2470 3570 c-19 -4 -91 -13 -160 -19 -90 -8 -134 -17 -160 -31 -118
-67 -135 -72 -292 -81 -170 -9 -243 -22 -307 -53 -60 -28 -64 -45 -10 -44 52
1 72 -20 89 -92 16 -66 2 -99 -51 -129 -64 -36 -149 -9 -149 47 -1 47 -36 109
-77 135 -21 14 -74 35 -118 47 -44 12 -99 31 -122 42 -37 19 -45 19 -73 8 -18
-7 -62 -42 -99 -77 -36 -36 -82 -76 -101 -91 -63 -47 -111 -96 -131 -134 -14
-27 -27 -38 -51 -43 -62 -14 -156 -63 -197 -104 -48 -48 -84 -115 -110 -208
-28 -99 -34 -112 -91 -182 -97 -121 -138 -230 -205 -551 -42 -198 -59 -351
-47 -420 14 -76 31 -112 87 -180 54 -65 72 -117 85 -236 15 -127 32 -181 108
-333 64 -129 67 -138 66 -205 0 -79 -18 -128 -83 -231 -59 -93 -118 -216 -151
-313 l-29 -87 71 -3 c81 -3 83 -2 92 68 20 149 142 380 202 380 39 0 49 -35
35 -123 -10 -62 -9 -91 5 -177 24 -157 19 -150 113 -150 l80 0 -23 43 c-13 23
-33 84 -46 135 -21 90 -21 94 -3 107 22 17 30 18 38 5 13 -21 26 -8 54 55 47
103 66 124 148 161 64 29 74 37 71 57 -4 30 -40 34 -82 8 -38 -24 -46 -20 -46
25 0 50 -28 60 -75 28 -55 -37 -67 -30 -71 38 -3 50 1 62 29 104 36 54 111
109 165 123 172 42 213 50 225 45 20 -7 42 22 29 39 -19 22 -109 49 -153 45
-38 -3 -43 0 -49 21 -10 43 -27 34 -34 -19 -7 -56 -27 -73 -54 -47 -15 15 -14
18 5 39 32 36 34 55 14 114 -18 49 -18 58 -5 89 17 43 17 83 -1 160 -13 56
-13 61 7 93 16 26 19 43 14 79 -5 39 -2 50 23 87 27 39 71 180 71 228 0 30 26
62 91 113 61 48 89 53 89 15 0 -42 26 -18 45 42 11 34 29 72 40 84 32 36 222
94 341 104 55 5 152 22 215 39 63 16 136 32 163 36 27 4 79 16 115 27 91 28
163 36 224 26 29 -4 115 -10 192 -12 l140 -4 53 30 c44 25 61 29 100 25 26 -3
83 -7 127 -10 98 -6 201 -40 345 -110 136 -68 170 -94 223 -176 92 -138 129
-232 153 -385 19 -117 28 -146 48 -146 33 0 204 327 231 444 8 33 15 103 15
154 0 96 -17 232 -30 232 -4 0 -10 51 -13 114 -3 62 -13 145 -22 183 -22 96
-149 352 -209 421 -25 30 -46 58 -46 63 0 21 -78 93 -129 119 -31 15 -65 38
-76 50 -18 21 -166 96 -225 115 -14 4 -36 16 -50 26 -48 36 -209 80 -325 90
-130 10 -246 10 -295 -1z"/>
<path d="M2155 2120 c-55 -4 -197 -13 -315 -19 -245 -13 -279 -16 -316 -33
-41 -19 -51 -54 -41 -150 15 -145 42 -192 110 -190 39 1 67 28 67 66 0 50 11
76 31 76 13 0 22 -12 30 -40 14 -47 71 -118 105 -131 53 -20 85 16 99 111 12
76 55 103 92 57 10 -13 29 -47 42 -75 32 -69 62 -79 103 -33 15 17 28 40 28
52 0 28 26 75 45 83 9 3 30 6 46 6 33 0 52 -24 68 -86 22 -82 96 -124 113 -64
18 66 37 247 29 280 -26 104 -50 110 -336 90z"/>
<path d="M2823 2038 c-12 -6 -25 -18 -28 -27 -11 -28 -18 -176 -11 -225 9 -60
56 -116 97 -116 26 0 30 5 44 58 20 74 28 86 53 90 25 4 52 -32 52 -68 0 -14
10 -46 23 -70 19 -38 27 -45 52 -45 35 0 55 31 55 87 0 37 20 68 45 68 24 0
42 -28 55 -82 17 -70 27 -88 49 -88 25 0 31 19 31 96 0 77 12 104 44 104 20 0
34 -17 78 -92 29 -50 58 -93 64 -95 38 -13 11 148 -41 250 -19 37 -35 79 -35
92 0 13 -6 27 -12 32 -7 4 -112 8 -233 8 -174 1 -233 4 -285 18 -75 19 -68 19
-97 5z"/>
<path d="M2453 1460 c-32 -13 -39 -52 -16 -97 22 -46 53 -63 116 -63 46 0 78
18 89 51 7 21 38 2 38 -24 0 -38 25 -53 64 -39 18 7 48 12 67 12 48 0 70 19
76 66 l4 39 -85 24 c-133 36 -303 51 -353 31z"/>
</g>
</svg>
