<?xml version="1.0" standalone="no"?>
<!DOCTYPE svg PUBLIC "-//W3C//DTD SVG 20010904//EN"
 "http://www.w3.org/TR/2001/REC-SVG-20010904/DTD/svg10.dtd">
<svg version="1.0" xmlns="http://www.w3.org/2000/svg"
 width="367.000000pt" height="362.000000pt" viewBox="0 0 367.000000 362.000000"
 preserveAspectRatio="xMidYMid meet">

<g transform="translate(0.000000,362.000000) scale(0.100000,-0.100000)"
fill="#000000" stroke="none">
<path d="M1675 3609 c-38 -5 -88 -15 -110 -24 -22 -8 -89 -26 -149 -40 -320
-75 -601 -314 -704 -600 -21 -60 -26 -91 -29 -209 l-3 -139 -79 -32 c-44 -17
-105 -47 -137 -66 -76 -45 -211 -179 -256 -254 -94 -155 -128 -332 -96 -501
11 -59 10 -66 -15 -121 -120 -268 -47 -588 182 -795 109 -98 288 -188 442
-222 18 -4 31 -17 40 -38 20 -52 88 -148 148 -211 255 -269 675 -368 1036
-245 81 28 188 81 245 122 l46 33 124 -5 c461 -17 873 198 1011 528 48 115 54
286 13 400 l-17 48 47 58 c108 132 149 256 148 444 0 171 -33 277 -123 397
-42 57 -46 68 -25 76 24 10 103 121 130 184 41 98 51 188 31 285 -23 113 -64
189 -149 274 -54 53 -92 81 -156 112 -99 48 -224 76 -311 70 l-59 -4 -50 62
c-159 196 -435 347 -730 399 -114 20 -348 27 -445 14z m444 -105 c287 -52 553
-204 694 -399 l36 -50 128 0 c113 0 136 -3 200 -27 346 -125 450 -513 207
-768 -30 -31 -54 -60 -54 -64 0 -4 24 -35 54 -68 94 -104 166 -274 166 -393
-1 -141 -71 -300 -193 -431 -46 -50 -53 -63 -45 -78 37 -66 49 -237 24 -332
-40 -151 -147 -285 -313 -391 -180 -116 -477 -181 -707 -155 l-99 11 -81 -54
c-97 -64 -152 -89 -266 -121 -399 -112 -836 70 -1010 421 -39 79 -44 85 -78
91 -482 82 -760 526 -570 911 l30 62 -16 81 c-20 100 -20 141 0 237 51 249
234 436 502 513 l84 24 -6 31 c-4 16 -9 80 -12 140 -7 130 7 201 62 310 193
380 734 593 1263 499z"/>
</g>
</svg>
